<svg xmlns="http://www.w3.org/2000/svg" viewBox="0 0 500 500"><defs><style>.cls-1{fill:#00d656;}.cls-2{fill:#fff;fill-rule:evenodd;}</style></defs><g id="Слой_2" data-name="Слой 2"><g id="Слой_1-2" data-name="Слой 1"><rect class="cls-1" width="500" height="500"/><path class="cls-2" d="M318.91,237.15c-37.38-22.18-99.85-24.52-135.48-13.42A10.72,10.72,0,1,1,177,203.27c41.46-12.25,109.77-9.92,153,15.79,5.25,2.9,7,9.92,4.08,15.18-2.92,4.09-9.94,5.84-15.18,2.91m-1.16,32.7c-2.93,4.1-8.2,5.85-12.28,2.92-31.52-19.27-79.42-25.11-116.2-13.42-4.68,1.16-9.93-1.17-11.11-5.85s1.18-9.92,5.86-11.09c42.62-12.84,95.18-6.42,131.39,15.77,3.5,1.74,5.25,7.58,2.34,11.67m-14,32.12c-2.34,3.5-6.42,4.68-9.92,2.34-27.45-16.94-61.9-20.44-102.79-11.1-4.08,1.18-7.58-1.75-8.76-5.25-1.16-4.09,1.77-7.6,5.27-8.76,44.38-9.92,82.91-5.84,113.29,12.85,4.09,1.75,4.66,6.42,2.91,9.92M250,133.21c-64.23,0-116.79,52.56-116.79,116.79S185.77,366.79,250,366.79,366.79,314.23,366.79,250A116.76,116.76,0,0,0,250,133.21"/></g></g></svg>