<svg xmlns="http://www.w3.org/2000/svg" xmlns:xlink="http://www.w3.org/1999/xlink" viewBox="0 0 500 500"><defs><style>.cls-1{fill:none;}.cls-2{fill:#5865f2;}.cls-3{clip-path:url(#clip-path);}.cls-4{fill:#fff;}</style><clipPath id="clip-path"><rect class="cls-1" x="135" y="160.03" width="231" height="178.94"/></clipPath></defs><g id="Слой_2" data-name="Слой 2"><g id="Слой_1-2" data-name="Слой 1"><rect class="cls-2" width="500" height="500"/><g class="cls-3"><path class="cls-4" d="M330.55,176a190.63,190.63,0,0,0-47-14.58.69.69,0,0,0-.75.36c-2,3.61-4.28,8.32-5.86,12a176.39,176.39,0,0,0-52.81,0,120.74,120.74,0,0,0-5.94-12,.74.74,0,0,0-.76-.36,190,190,0,0,0-47,14.58.68.68,0,0,0-.31.27c-30,44.74-38.15,88.38-34.13,131.48a.79.79,0,0,0,.31.54,191.43,191.43,0,0,0,57.68,29.16.75.75,0,0,0,.81-.27A137.58,137.58,0,0,0,206.55,318a.73.73,0,0,0-.4-1,125.18,125.18,0,0,1-18-8.59.74.74,0,0,1-.08-1.23c1.22-.9,2.43-1.85,3.58-2.8a.73.73,0,0,1,.75-.1c37.8,17.26,78.73,17.26,116.09,0a.72.72,0,0,1,.76.09c1.15.95,2.36,1.91,3.58,2.81a.74.74,0,0,1-.06,1.23,117.3,117.3,0,0,1-18,8.58.74.74,0,0,0-.39,1,153.27,153.27,0,0,0,11.79,19.18.73.73,0,0,0,.81.28,190.8,190.8,0,0,0,57.77-29.16.74.74,0,0,0,.31-.53c4.81-49.83-8.07-93.11-34.16-131.48A.59.59,0,0,0,330.55,176ZM212.19,281.47c-11.38,0-20.76-10.45-20.76-23.29s9.2-23.28,20.76-23.28,20.94,10.54,20.76,23.28C233,271,223.76,281.47,212.19,281.47Zm76.76,0c-11.38,0-20.76-10.45-20.76-23.29s9.2-23.28,20.76-23.28,20.94,10.54,20.76,23.28C309.71,271,300.6,281.47,289,281.47Z"/></g></g></g></svg>