<?xml version="1.0" encoding="utf-8"?>
<!-- Generator: Adobe Illustrator 25.3.1, SVG Export Plug-In . SVG Version: 6.00 Build 0)  -->
<svg version="1.1" id="Слой_1" xmlns="http://www.w3.org/2000/svg" xmlns:xlink="http://www.w3.org/1999/xlink" x="0px" y="0px"
	 viewBox="0 0 500 500" style="enable-background:new 0 0 500 500;" xml:space="preserve">
<style type="text/css">
	.st0{fill:#E1306C;}
	.st1{fill:#FFFFFF;}
</style>
<rect class="st0" width="500" height="500"/>
<path class="st1" d="M365.1,202.3c-0.5-12.3-2.5-20.8-5.4-28.1c-2.9-7.8-7.5-14.7-13.4-20.5c-5.8-5.9-12.8-10.4-20.5-13.3
	c-7.4-2.8-15.8-4.8-28.1-5.4c-12.4-0.6-16.3-0.7-47.8-0.7s-35.4,0.1-47.7,0.7c-12.3,0.5-20.8,2.5-28.1,5.4
	c-7.8,2.9-14.7,7.5-20.5,13.4c-5.9,5.8-10.4,12.8-13.3,20.5c-2.8,7.4-4.8,15.8-5.4,28.1c-0.6,12.4-0.7,16.3-0.7,47.8
	s0.1,35.4,0.7,47.7c0.5,12.3,2.5,20.8,5.4,28.1c2.9,7.8,7.5,14.7,13.4,20.5c5.8,5.9,12.8,10.4,20.5,13.3c7.4,2.8,15.8,4.8,28.1,5.4
	c12.3,0.5,16.3,0.7,47.7,0.7s35.4-0.1,47.7-0.7c12.3-0.5,20.8-2.5,28.1-5.4c15.6-6,27.9-18.3,33.9-33.9c2.8-7.4,4.8-15.8,5.4-28.1
	c0.5-12.3,0.7-16.3,0.7-47.7S365.7,214.7,365.1,202.3z M344.3,296.8c-0.5,11.3-2.4,17.4-4,21.5c-3.9,10.1-11.9,18.1-22,22
	c-4.1,1.6-10.2,3.5-21.5,4c-12.2,0.5-15.9,0.7-46.8,0.7s-34.6-0.1-46.8-0.7c-11.3-0.5-17.4-2.4-21.5-4c-5-1.9-9.6-4.8-13.3-8.6
	c-3.8-3.8-6.8-8.3-8.6-13.3c-1.6-4.1-3.5-10.2-4-21.5c-0.5-12.2-0.7-15.9-0.7-46.8s0.1-34.6,0.7-46.8c0.5-11.3,2.4-17.4,4-21.5
	c1.9-5,4.8-9.6,8.7-13.3c3.8-3.8,8.3-6.8,13.3-8.6c4.1-1.6,10.2-3.5,21.5-4c12.2-0.5,15.9-0.7,46.8-0.7c30.9,0,34.6,0.1,46.8,0.7
	c11.3,0.5,17.4,2.4,21.5,4c5,1.9,9.6,4.8,13.3,8.6c3.8,3.8,6.8,8.3,8.6,13.3c1.6,4.1,3.5,10.2,4,21.5c0.5,12.2,0.7,15.9,0.7,46.8
	S344.8,284.6,344.3,296.8z"/>
<path class="st1" d="M250,190.6c-32.8,0-59.5,26.6-59.5,59.5s26.6,59.5,59.5,59.5c32.8,0,59.5-26.6,59.5-59.5S282.9,190.6,250,190.6
	z M250,288.6c-21.3,0-38.6-17.3-38.6-38.6s17.3-38.6,38.6-38.6c21.3,0,38.6,17.3,38.6,38.6S271.3,288.6,250,288.6z"/>
<path class="st1" d="M325.7,188.2c0,7.7-6.2,13.9-13.9,13.9c-7.7,0-13.9-6.2-13.9-13.9c0-7.7,6.2-13.9,13.9-13.9
	C319.5,174.3,325.7,180.5,325.7,188.2z"/>
</svg>
