<?xml version="1.0" encoding="utf-8"?>
<!-- Generator: Adobe Illustrator 25.3.1, SVG Export Plug-In . SVG Version: 6.00 Build 0)  -->
<svg version="1.1" id="Capa_1" xmlns="http://www.w3.org/2000/svg" xmlns:xlink="http://www.w3.org/1999/xlink" x="0px" y="0px"
	 viewBox="0 0 512 512" style="enable-background:new 0 0 512 512;" xml:space="preserve">
<style type="text/css">
	.st0{fill:#929292;}
</style>
<g>
	<g>
		<path class="st0" d="M341.5,338.3c54.5-85.5,47.6-74.8,49.2-77.1c19.8-28,30.3-60.9,30.3-95.2C421,75,347.1,0,256,0
			C165.2,0,91,74.8,91,166c0,34.3,10.7,68.1,31.2,96.4l48.3,75.8C118.8,346.2,31,369.9,31,422c0,19,12.4,46.1,71.5,67.2
			C143.7,503.9,198.2,512,256,512c108,0,225-30.5,225-90C481,369.9,393.3,346.2,341.5,338.3z M147.2,245.9c-0.2-0.3-0.3-0.5-0.5-0.8
			c-17-23.5-25.7-51.2-25.7-79.2c0-75,60.4-136,135-136c74.4,0,135,61,135,136c0,28-8.5,54.8-24.6,77.7
			c-1.4,1.9,6.1-9.8-110.4,172.9L147.2,245.9z M256,482c-118,0-195-34.7-195-60c0-17,39.6-45,127.2-55.9l55.1,86.5
			c2.8,4.3,7.5,6.9,12.6,6.9c5.1,0,9.9-2.6,12.6-6.9l55.1-86.5C411.4,377,451,405,451,422C451,447.1,374.7,482,256,482z"/>
	</g>
</g>
<g>
	<g>
		<path class="st0" d="M256,91c-41.4,0-75,33.6-75,75s33.6,75,75,75s75-33.6,75-75S297.4,91,256,91z M256,211c-24.8,0-45-20.2-45-45
			s20.2-45,45-45s45,20.2,45,45S280.8,211,256,211z"/>
	</g>
</g>
</svg>
