<?xml version="1.0" encoding="utf-8"?>
<!-- Generator: Adobe Illustrator 25.3.1, SVG Export Plug-In . SVG Version: 6.00 Build 0)  -->
<svg version="1.1" id="Слой_1" xmlns="http://www.w3.org/2000/svg" xmlns:xlink="http://www.w3.org/1999/xlink" x="0px" y="0px"
	 viewBox="0 0 500 500" style="enable-background:new 0 0 500 500;" xml:space="preserve">
<style type="text/css">
	.st0{fill:#1B2838;}
	.st1{fill:#FFFFFF;}
</style>
<rect class="st0" width="500" height="500"/>
<g>
	<path class="st1" d="M249.8,132.7c-61,0-111.1,47.5-115.8,107.9l62.3,26c5.3-3.6,11.7-5.8,18.5-5.8c0.6,0,1.2,0,1.8,0.1l27.7-40.5
		v-0.6c0-24.4,19.7-44.2,43.8-44.2c24.2,0,43.8,19.8,43.8,44.2S312.3,264,288.1,264c-0.3,0-0.7,0-1,0l-39.5,28.4c0,0.5,0,1.1,0,1.6
		c0,18.3-14.8,33.2-32.9,33.2c-15.9,0-29.2-11.5-32.2-26.7L138,282c13.8,49.2,58.6,85.3,111.8,85.3C314,367.3,366,314.8,366,250
		C366,185.2,314,132.7,249.8,132.7z M206.8,310.7l-14.3-6c2.5,5.3,6.9,9.8,12.7,12.2c12.6,5.3,27-0.7,32.3-13.4
		c2.5-6.1,2.6-12.9,0-19.1c-2.5-6.2-7.2-11-13.3-13.5c-6-2.5-12.5-2.4-18.2-0.3l14.7,6.2c9.3,3.9,13.6,14.6,9.8,24
		C226.7,310.1,216.1,314.6,206.8,310.7z M317.3,219.8c0-16.2-13.1-29.5-29.2-29.5c-16.1,0-29.2,13.2-29.2,29.5s13.1,29.5,29.2,29.5
		C304.2,249.2,317.3,236,317.3,219.8z M266.3,219.7c0-12.2,9.8-22.1,21.9-22.1c12.1,0,21.9,9.9,21.9,22.1s-9.8,22.1-21.9,22.1
		C276.1,241.9,266.3,231.9,266.3,219.7z"/>
</g>
</svg>
