<?xml version="1.0" encoding="utf-8"?>
<!-- Generator: Adobe Illustrator 25.3.1, SVG Export Plug-In . SVG Version: 6.00 Build 0)  -->
<svg version="1.1" id="Слой_1" xmlns="http://www.w3.org/2000/svg" xmlns:xlink="http://www.w3.org/1999/xlink" x="0px" y="0px"
	 viewBox="0 0 500 500" style="enable-background:new 0 0 500 500;" xml:space="preserve">
<style type="text/css">
	.st0{fill:#2787F5;}
	.st1{fill:#FFFFFF;}
</style>
<rect class="st0" width="500" height="500"/>
<g>
	<path class="st1" d="M364.8,303.4c-0.3-0.6-0.5-1.1-0.8-1.5c-4-7.2-11.7-16.1-23.1-26.7l-0.2-0.2l-0.1-0.1l-0.1-0.1h-0.1
		c-5.2-4.9-8.4-8.2-9.8-9.9c-2.5-3.2-3.1-6.5-1.7-9.8c1-2.5,4.6-7.8,10.9-15.8c3.3-4.3,5.9-7.7,7.9-10.3
		c13.9-18.5,20-30.4,18.1-35.5l-0.7-1.2c-0.5-0.7-1.7-1.4-3.7-2c-2-0.6-4.6-0.7-7.7-0.3l-34.8,0.2c-0.6-0.2-1.4-0.2-2.4,0.1
		c-1,0.2-1.6,0.4-1.6,0.4l-0.6,0.3l-0.5,0.4c-0.4,0.2-0.8,0.7-1.3,1.3c-0.5,0.6-0.9,1.3-1.2,2.1c-3.8,9.7-8.1,18.8-12.9,27.2
		c-3,5-5.7,9.3-8.2,13c-2.5,3.7-4.6,6.4-6.3,8.1c-1.7,1.7-3.2,3.1-4.6,4.2c-1.4,1-2.4,1.5-3.1,1.3c-0.7-0.2-1.4-0.3-2.1-0.5
		c-1.1-0.7-2-1.7-2.7-3c-0.7-1.2-1.1-2.8-1.4-4.7c-0.2-1.9-0.4-3.5-0.4-4.9c0-1.4,0-3.3,0.1-5.8c0.1-2.5,0.1-4.2,0.1-5.1
		c0-3.1,0.1-6.4,0.2-10c0.1-3.6,0.2-6.4,0.3-8.5c0.1-2.1,0.1-4.3,0.1-6.6s-0.1-4.2-0.4-5.5c-0.3-1.3-0.7-2.6-1.3-3.9
		c-0.6-1.2-1.4-2.2-2.5-2.9c-1.1-0.7-2.4-1.2-4-1.6c-4.3-1-9.7-1.5-16.3-1.6c-15-0.2-24.6,0.8-28.9,2.9c-1.7,0.9-3.2,2.1-4.6,3.6
		c-1.4,1.8-1.7,2.7-0.6,2.9c4.8,0.7,8.3,2.5,10.3,5.2l0.7,1.5c0.6,1,1.1,2.9,1.7,5.6c0.6,2.7,0.9,5.6,1.1,8.8
		c0.4,5.9,0.4,10.9,0,15.1c-0.4,4.2-0.8,7.4-1.1,9.8c-0.4,2.3-0.9,4.2-1.6,5.7c-0.7,1.4-1.2,2.3-1.5,2.7c-0.2,0.3-0.4,0.5-0.6,0.6
		c-1,0.4-2.1,0.6-3.3,0.6c-1.1,0-2.5-0.6-4.1-1.7c-1.6-1.1-3.3-2.7-5-4.7c-1.7-2-3.7-4.7-5.9-8.3c-2.2-3.5-4.4-7.7-6.8-12.6
		l-1.9-3.5c-1.2-2.3-2.9-5.5-5-9.8c-2.1-4.3-3.9-8.5-5.6-12.5c-0.6-1.7-1.6-3-2.9-3.9l-0.6-0.4c-0.4-0.3-1-0.7-1.9-1
		c-0.9-0.4-1.8-0.6-2.8-0.8l-33.1,0.2c-3.4,0-5.7,0.8-6.9,2.3l-0.5,0.7c-0.2,0.4-0.4,1-0.4,1.9c0,0.9,0.2,2,0.7,3.3
		c4.8,11.4,10.1,22.3,15.8,32.9c5.7,10.5,10.6,19,14.8,25.5c4.2,6.4,8.5,12.5,12.8,18.2c4.3,5.7,7.2,9.4,8.6,11
		c1.4,1.6,2.5,2.8,3.3,3.6l3,2.9c1.9,1.9,4.8,4.2,8.5,6.9c3.7,2.7,7.9,5.4,12.4,8c4.6,2.6,9.8,4.7,15.9,6.4c6,1.7,11.9,2.3,17.6,2
		h13.9c2.8-0.2,5-1.1,6.4-2.7l0.5-0.6c0.3-0.5,0.6-1.2,0.9-2.2c0.3-1,0.4-2.1,0.4-3.3c-0.1-3.5,0.2-6.6,0.8-9.4
		c0.6-2.8,1.3-4.9,2.1-6.3c0.8-1.4,1.6-2.6,2.6-3.6c1-1,1.7-1.6,2.1-1.8c0.4-0.2,0.7-0.3,1-0.4c1.9-0.6,4.2,0,6.8,1.9
		c2.6,1.9,5.1,4.2,7.4,7c2.3,2.8,5.1,5.9,8.3,9.4c3.2,3.5,6,6,8.5,7.7l2.4,1.4c1.6,1,3.7,1.9,6.3,2.7c2.6,0.8,4.8,1,6.8,0.6
		l30.9-0.5c3.1,0,5.4-0.5,7.1-1.5c1.7-1,2.7-2.1,3-3.3c0.3-1.2,0.3-2.6,0.1-4.1C365.3,305,365.1,304,364.8,303.4z"/>
</g>
</svg>
